/* XPM */
static char *result[] = {
/* columns rows colors chars-per-pixel */
"36 36 9 1 ",
"  c #3AB80E",
". c #3FC810",
"X c #43D410",
"o c #45DA11",
"O c #46DC11",
"+ c #49E712",
"@ c #4AEB12",
"# c #4BEE12",
"$ c None",
/* pixels */
"$$$$$$$$$$$$$$$$$$$$$$$$$$$$$$$$$$$$",
"$$$$$$$$$$$$$$$$$$$$$$$$$$$$$$$$$$$$",
"$$$$$$$$$$$$$$$$$$$$$$$$$$$$$$$$$$$$",
"$$$$$$$$$$$$$$$$$$$$$$$$$$$$$$$$$$$$",
"$$$$$$$$$$$$$$$$$$$$$$$$$$$$$$$$$$$$",
"$$$$$$$$$$$$$$$$$$$$$$$$$$$$$$$$$$$$",
"$$$$$$ .Xooooooooooooooooooooo$$$$$$",
"$$$$$$.O+@@@@@@@@@@@@@@@@@@@@@$$$$$$",
"$$$$$$X+######################$$$$$$",
"$$$$$$o@######################$$$$$$",
"$$$$$$o@######################$$$$$$",
"$$$$$$o@######################$$$$$$",
"$$$$$$o@######################$$$$$$",
"$$$$$$o@######################$$$$$$",
"$$$$$$o@######################$$$$$$",
"$$$$$$o@######################$$$$$$",
"$$$$$$o@######################$$$$$$",
"$$$$$$o@######################$$$$$$",
"$$$$$$o@######################$$$$$$",
"$$$$$$o@######################$$$$$$",
"$$$$$$o@######################$$$$$$",
"$$$$$$o@######################$$$$$$",
"$$$$$$o@######################$$$$$$",
"$$$$$$o@######################$$$$$$",
"$$$$$$o@######################$$$$$$",
"$$$$$$o@######################$$$$$$",
"$$$$$$o@######################$$$$$$",
"$$$$$$o@######################$$$$$$",
"$$$$$$o@######################$$$$$$",
"$$$$$$o@######################$$$$$$",
"$$$$$$$$$$$$$$$$$$$$$$$$$$$$$$$$$$$$",
"$$$$$$$$$$$$$$$$$$$$$$$$$$$$$$$$$$$$",
"$$$$$$$$$$$$$$$$$$$$$$$$$$$$$$$$$$$$",
"$$$$$$$$$$$$$$$$$$$$$$$$$$$$$$$$$$$$",
"$$$$$$$$$$$$$$$$$$$$$$$$$$$$$$$$$$$$",
"$$$$$$$$$$$$$$$$$$$$$$$$$$$$$$$$$$$$"
};
