/* XPM */
static char *ed6a5c66425343079eadcbf515266bb28fY8xF0dS9BYCAYL[] = {
/* columns rows colors chars-per-pixel */
"36 36 7 1 ",
"  c None",
". c #FC2406",
"X c #FD2506",
"o c #FC2407",
"O c #FC2507",
"+ c #FD2507",
"@ c #FC2508",
/* pixels */
"               OOOOOO               ",
"           @OOOOOOOOOOOOO           ",
"         OOOOOOOOOOOOOOOOOO         ",
"        OOOOOOOOOOOOOOOOOOOOO       ",
"      OOOOOOOOOOOOOOOOOOOOOOOO      ",
"     OOOOOOOOOOOOOOOOOOOOOOOOOO     ",
"    .OOOOOOOOOOOOOOOOOOOOOOOOOOO    ",
"    OOOOOOOOOOOOOOOOOOOOOOOOOOOOO   ",
"   OOOOOOOOOOOOOOOOOOOOOOOOOOOOOO   ",
"  OOOOOOOOOOOOOOOOOOOOOOOOOOOOOOOO  ",
"  OOOOOOOOOOOOOOOOOOOOOOOOOOOOOOOO  ",
" @OOOOOOOOOOOOOOOOOOOOOOOOOOOOOOOOO ",
" OOOOOOOOOOOOOOOOOOOOOOOOOOOOOOOOOO ",
" OOOOOOOOOOOOOOOOOOOOOOOOOOOOOOOOOOO",
" OOOOOOOOOOOOOOOOOOOOOOOOOOOOOOOOOOO",
"OOOOOOOOOOOOOOOOOOOOOOOOOOOOOOOOOOOO",
"OOOOOOOOOOOOOOOOOOOOOOOOOOOOOOOOOOOO",
"OOOOOOOOOOOOOOOOOOOOOOOOOOOOOOOOOOOO",
"OOOOOOOOOOOOOOOOOOOOOOOOOOOOOOOOOOOO",
"OOOOOOOOOOOOOOOOOOOOOOOOOOOOOOOOOOOO",
"OOOOOOOOOOOOOOOOOOOOOOOOOOOOOOOOOOOO",
" OOOOOOOOOOOOOOOOOOOOOOOOOOOOOOOOOOO",
" OOOOOOOOOOOOOOOOOOOOOOOOOOOOOOOOOOO",
" OOOOOOOOOOOOOOOOOOOOOOOOOOOOOOOOOO ",
" OOOOOOOOOOOOOOOOOOOOOOOOOOOOOOOOOO ",
"  OOOOOOOOOOOOOOOOOOOOOOOOOOOOOOOOO ",
"  OOOOOOOOOOOOOOOOOOOOOOOOOOOOOOOO  ",
"   OOOOOOOOOOOOOOOOOOOOOOOOOOOOOOO  ",
"   OOOOOOOOOOOOOOOOOOOOOOOOOOOOOO   ",
"    OOOOOOOOOOOOOOOOOOOOOOOOOOOO    ",
"     OOOOOOOOOOOOOOOOOOOOOOOOOO@    ",
"      OOOOOOOOOOOOOOOOOOOOOOOO@     ",
"       OOOOOOOOOOOOOOOOOOOOOO       ",
"         OOOOOOOOOOOOOOOOOOO        ",
"           OOOOOOOOOOOOOOO          ",
"             OOOOOOOOOO             "
};
