/* XPM */
static char *result[] = {
/* columns rows colors chars-per-pixel */
"32 32 163 2 ",
"   c #0B0B15",
".  c #0F0E18",
"X  c #100F19",
"o  c #15141D",
"O  c #19171F",
"+  c #1C191F",
"@  c #1E1513",
"#  c #241A1D",
"$  c #2C1C1C",
"%  c #24171C",
"&  c #331F1D",
"*  c #2E231E",
"=  c #35211D",
"-  c #3B221E",
";  c #171620",
":  c #191720",
">  c #1C1A22",
",  c #231D23",
"<  c #2B1E22",
"1  c #221F28",
"2  c #321E21",
"3  c #262026",
"4  c #2D2124",
"5  c #23212A",
"6  c #2D2428",
"7  c #332324",
"8  c #3B2624",
"9  c #3E2925",
"0  c #352628",
"q  c #372829",
"w  c #3C2B2A",
"e  c #3F342E",
"r  c #342E31",
"t  c #3B3234",
"y  c #41281A",
"u  c #482F1C",
"i  c #50361F",
"p  c #6F371F",
"a  c #7C3A1D",
"s  c #422622",
"d  c #442A25",
"f  c #4C2C25",
"g  c #432C29",
"h  c #4A2E29",
"j  c #532E25",
"k  c #5D2F25",
"l  c #4B3424",
"z  c #43332E",
"x  c #4B322C",
"c  c #4D3A29",
"v  c #563026",
"b  c #5C3225",
"n  c #54322A",
"m  c #5C3429",
"M  c #5C392C",
"N  c #583D29",
"B  c #453030",
"V  c #4C3531",
"C  c #5B3F35",
"Z  c #553934",
"A  c #643424",
"S  c #6A3523",
"D  c #6E3825",
"F  c #62362A",
"G  c #663A2D",
"H  c #6C3A29",
"J  c #723722",
"K  c #753A24",
"L  c #7C3B23",
"P  c #733C29",
"I  c #7E3F29",
"U  c #5E422C",
"Y  c #4B423E",
"T  c #514036",
"R  c #584336",
"E  c #58453A",
"W  c #76412A",
"Q  c #714C2D",
"!  c #644433",
"~  c #6B4537",
"^  c #684C37",
"/  c #60443E",
"(  c #72493A",
")  c #7B4838",
"_  c #705337",
"`  c #69462A",
"'  c #473F43",
"]  c #4D4541",
"[  c #544642",
"{  c #634C45",
"}  c #694A40",
"|  c #614C48",
" . c #745147",
".. c #755C4D",
"X. c #605251",
"o. c #725F51",
"O. c #7B665C",
"+. c #756461",
"@. c #863E1E",
"#. c #823E24",
"$. c #8C3F22",
"%. c #813F29",
"&. c #8D401F",
"*. c #91411F",
"=. c #99441E",
"-. c #AF4B1E",
";. c #834025",
":. c #8C4224",
">. c #854229",
",. c #8B442B",
"<. c #9D4522",
"1. c #93472A",
"2. c #974B2E",
"3. c #934522",
"4. c #814832",
"5. c #875230",
"6. c #A54A22",
"7. c #B74F21",
"8. c #AE5F3C",
"9. c #DC5C25",
"0. c #E65E23",
"q. c #805B4A",
"w. c #8B5E4C",
"e. c #865543",
"r. c #84664D",
"t. c #966C4E",
"y. c #9F744F",
"u. c #876B5B",
"i. c #82665B",
"p. c #996E58",
"a. c #926A55",
"s. c #9D7A5E",
"d. c #A26E4E",
"f. c #816E62",
"g. c #9D7B62",
"h. c #947E76",
"j. c #96806F",
"k. c #95837A",
"l. c #998878",
"z. c #A98261",
"x. c #AC876E",
"c. c #AD8C6F",
"v. c #B28F6E",
"b. c #B58E7B",
"n. c #BA977E",
"m. c #A98B82",
"M. c #A9968B",
"N. c #AD998D",
"B. c #A6948A",
"V. c #B59E8E",
"C. c #BA9B86",
"Z. c #AB9A91",
"A. c #BDA08F",
"S. c #BCADA2",
"D. c #B2A9A4",
"F. c #B9B0A7",
"G. c #C3A283",
"H. c #C3AF9D",
"J. c #C2B19D",
"K. c #CEBBA7",
"L. c #CDB4A4",
"P. c #E4C29C",
"I. c #D5C2AD",
/* pixels */
"    . X . . o o O ; > ; ; > > > > > 5 > > > > ; ; > o o . .     ",
"  . .     . . ; O ; ; o > > > > > > 5 > > > > ; ; o o o o .     ",
"o X .   . o o ; ; > > O ; > > 1 > 1 5 > > ; ; ; > ; o . o . .   ",
". o o o o : : ; > > > O > ; ; > > > 5 > > > ; ; O o O o o . . . ",
"X o X o ; ; : : > O ; > o > o > ; > > > ; > > ; O O O O o o . . ",
". o o X X o : : O ; > ; > > > 1 > > > ; > > > 5 O o O O O o . . ",
"o o O o o o o o o ; o > o > > 1 1 5 > > > > > > o O O O o o . . ",
"; o o o o o o o o o O > > o > > > 5 5 ; > > > ; O ; O O o o . o ",
"; : O ; o o o : O : > > > > 1 5 5 1 1 : > > > O o > O O o o o o ",
"o : o o o O O O O : 5 > > > > 5 5 5 : : > : : + ; > O O O O X o ",
"o O O : O > > , > > > > O : : 3 > > : o O : + + 5 3 O > > O O O ",
"O O O > , V / { X.] 3 : O : 0  .M M M 7 > > O.q...r._ U R t X X ",
"o > , g f.z $ 8 h ..r.o ; | O.g { g ^ n.~ 3 4 # 7 V.- = = * O O ",
"3 > 0 k.@ > ; 1 1 > c + t f.7 q ] e + o.G.3 > , + A.= : + > > > ",
"+ , O.c O + , , , > + < Z.= , r Y e + 3 K.g 3 > , N.* > + > + , ",
", , B.i % O O @ , < , 8 S.$ 3 t Y e O * F.U > % , M.= > , , + > ",
"# < L._ # # % % 4 ! l 8 J.7 3 t ] z 4 3 D.u 3 , # V.= , > , O O ",
"< 2 A.v.% 3 1 , 4 h.N & G.l 6 t E z 0 4 S.= 3 , , V.= , , # + % ",
"< $ e.P.E < 7 < 4 k.` 4 r.z.0 w T z * ) l.% 1 1 < N.$ , , , , < ",
"& 7 d d.I.} F 8 g m.Q 0 7 y.b.~ R N b C.$ < < 3 < V.$ # < , % < ",
"y & & s ! s.x.a.p.j.- w 0 w ! c.t.g.u.h 4 < 4 4 7 H.c , 2 , < < ",
"s 8 s 8 8 g s 9 9 8 0 w q w g x z 9 q q 4 0 q 4 < $ % 2 < < < < ",
"f y d s f h z 9 g w g w g 8 z V x g w q 0 0 7 q q 7 < < $ 2 & 2 ",
"j j f f h h g l g 9 - 9 g g 9 V Z z w w 0 x w 0 7 < 2 7 8 8 8 8 ",
"p k k k j x h h f d s s h g g g B g B g g g g g q q 8 x d d s 8 ",
"p p i k j v n f s s f s s 8 n g g h C B h g g g g g g d h g d f ",
"a p S A b v b H u f f f f s s h d h n G n g h h h f g h f f h k ",
"@.a L p P S W 5.b v j v f k j h Z n n n h h h n n f s f f h j A ",
"=.@.a a P W K H b b H b k b b G F k M n n n k n j j j n v v j k ",
"-.&.:.L a K P P b b S F F b b k k n F F k F H k k n k H P A A S ",
"9.7.=.3.#.$.p K D D D K D S H H G P 4.P H G P P H H S k k J J L ",
"0.9.6.=.6.<.6.@.:.1.;.I ;.>.I ,.%.2.8.,.$.I %.%.%.%.%.#.J #.#.$."
};
