/* XPM */
static char *result[] = {
/* columns rows colors chars-per-pixel */
"32 32 224 2 ",
"   c #020101",
".  c #0B0603",
"X  c #0D0806",
"o  c #0B0A0B",
"O  c #110703",
"+  c #150A05",
"@  c #1B0D06",
"#  c #140E0C",
"$  c #1C0F08",
"%  c #13100E",
"&  c #1D110A",
"*  c #1E1106",
"=  c #0B0D10",
"-  c #0D1014",
";  c #141211",
":  c #1A1514",
">  c #1F1917",
",  c #1C1A19",
"<  c #16191E",
"1  c #220F06",
"2  c #241106",
"3  c #2B1307",
"4  c #23130A",
"5  c #2C1509",
"6  c #2C1A0D",
"7  c #321508",
"8  c #341B0C",
"9  c #3C1D0A",
"0  c #351707",
"q  c #231D1A",
"w  c #251C18",
"e  c #361D11",
"r  c #3B210E",
"t  c #37200F",
"y  c #26201E",
"u  c #2A211E",
"i  c #352213",
"p  c #3D2311",
"a  c #3F2A16",
"s  c #31241F",
"d  c #161B20",
"f  c #1B1E23",
"g  c #1D2125",
"h  c #1D242B",
"j  c #1F2931",
"k  c #2C2523",
"l  c #22252A",
"z  c #252528",
"x  c #302925",
"c  c #262D34",
"v  c #2A2D33",
"b  c #252F38",
"n  c #26303A",
"m  c #2B333A",
"M  c #2C3036",
"N  c #32363C",
"B  c #3A3839",
"V  c #431E0A",
"C  c #44220C",
"Z  c #4B240C",
"A  c #4B280E",
"S  c #54260B",
"D  c #5C2D0E",
"F  c #56270C",
"G  c #442611",
"H  c #492713",
"J  c #4C2A13",
"K  c #452913",
"L  c #542C13",
"P  c #5B2E12",
"I  c #493119",
"U  c #5A3215",
"Y  c #5C3419",
"T  c #5D3A1B",
"R  c #55361A",
"E  c #642D0D",
"W  c #6B320F",
"Q  c #77360F",
"!  c #633313",
"~  c #6B3511",
"^  c #6D3A15",
"/  c #623519",
"(  c #643B1A",
")  c #6B3B1C",
"_  c #673916",
"`  c #753A13",
"'  c #7C3C14",
"]  c #733E1C",
"[  c #7A3F19",
"{  c #5D3E24",
"}  c #513C2A",
"|  c #433F39",
" . c #6E3D20",
".. c #743F20",
"X. c #69431D",
"o. c #73411C",
"O. c #7E431B",
"+. c #7E461B",
"@. c #484437",
"#. c #564932",
"$. c #664828",
"%. c #7B4422",
"&. c #774823",
"*. c #6E4F31",
"=. c #6C5A37",
"-. c #775538",
";. c #734B34",
":. c #2E3942",
">. c #353B43",
",. c #3D3E41",
"<. c #373C46",
"1. c #403F42",
"2. c #37424C",
"3. c #3B434B",
"4. c #3D4044",
"5. c #444344",
"6. c #4B4748",
"7. c #464E56",
"8. c #4C545B",
"9. c #5E5249",
"0. c #6C5D4D",
"q. c #7C5D49",
"w. c #776746",
"e. c #746855",
"r. c #706D54",
"t. c #525B67",
"y. c #4B5C69",
"u. c #8B4214",
"i. c #83461C",
"p. c #844A1C",
"a. c #894718",
"s. c #974B18",
"d. c #95521D",
"f. c #A84F19",
"g. c #A4561F",
"h. c #B45A1C",
"j. c #844A21",
"k. c #8A4E24",
"l. c #854724",
"z. c #954D28",
"x. c #835223",
"c. c #8A5425",
"v. c #925324",
"b. c #9A5722",
"n. c #995A25",
"m. c #95562B",
"M. c #9C552A",
"N. c #935B2A",
"B. c #965A31",
"V. c #A15E24",
"C. c #A45D29",
"Z. c #A7592B",
"A. c #B45C2C",
"S. c #9C6024",
"D. c #9E6935",
"F. c #A76129",
"G. c #AD632A",
"H. c #A56829",
"J. c #AD6B2C",
"K. c #AD6124",
"L. c #BA6C2D",
"P. c #B66728",
"I. c #B9752C",
"U. c #BC6531",
"Y. c #BE7B32",
"T. c #C66A28",
"R. c #C7772C",
"E. c #C86934",
"W. c #CC7B35",
"Q. c #C67731",
"!. c #D77639",
"~. c #D67334",
"^. c #E67C3E",
"/. c #8B7154",
"(. c #826E49",
"). c #A37149",
"_. c #D07841",
"`. c #C97C42",
"'. c #E37C40",
"]. c #CC8636",
"[. c #D28234",
"{. c #D78739",
"}. c #D8913D",
"|. c #E18B3A",
" X c #E8933D",
".X c #9E935E",
"XX c #968853",
"oX c #A08044",
"OX c #A29D5F",
"+X c #B09B58",
"@X c #ABA35F",
"#X c #908F6D",
"$X c #959670",
"%X c #9BA073",
"&X c #C68847",
"*X c #CA9346",
"=X c #D59643",
"-X c #D49945",
";X c #C09653",
":X c #EB8941",
">X c #E89843",
",X c #F59B49",
"<X c #F68D47",
"1X c #DEA143",
"2X c #C8A357",
"3X c #DEA857",
"4X c #DDB75F",
"5X c #EBA349",
"6X c #EBA440",
"7X c #F3AA4C",
"8X c #FBAB4A",
"9X c #EFB751",
"0X c #F6B855",
"qX c #FFA954",
"wX c #DDAE64",
"eX c #C5AE6B",
"rX c #EABE71",
"tX c #F8C35C",
"yX c #DDC466",
"uX c #FAC765",
"iX c #F6D567",
"pX c #FDD874",
"aX c #FAEB7B",
"sX c #6B7580",
/* pixels */
". . . . . O . O + + + * * * 4 * 4 4 4 4 4 4 & * * + O O . . O . ",
". . O O O O + @ * 2 3 3 t r r r a r p a p 8 8 6 6 4 2 2 @ + + . ",
"O O @ @ @ @ 1 7 t t r C A U U T T ( X.T T R J A G 9 6 3 1 1 1 O ",
"@ @ 1 1 1 3 7 V A S D D o.+.+.+.p.x.x.+.o.o._ Y U L C r 0 7 1 + ",
"1 1 3 3 0 V V S D W Q u.d.S.F.F.H.J.J.D.v.v.k.+.o._ D Z V 0 2 1 ",
"1 3 0 V V S F E Q u.s.d.C.R.W.W.W.{.{.L.L.P.C.M.v.+.` ! Z 9 0 1 ",
"1 0 V S F E Q Q u.s.h.R.R. X>X5X7X9X7X>X|.{.Q.T.K.n.p.^ P A 9 6 ",
"3 V V F Q Q u.s.f.h.T.{. X7X9X4XyXyXuX0X8X,X>X|.W.P.d.p._ U J 8 ",
"7 V S E ' s.f.A.A.q.D. X0X2X.X#X$X%X@XiXiXwX/.,X X[.R.S.p.X.U C ",
"0 S E Q u.h.T.m.6./.6.oXr.n n g d h :.r.OXt.t.0.8X X[.I.S.x.X.A ",
"V P ^ u.g.A.E.c.=.*X1.v d h :.j n j n n l 3.7.XXtX8X|.R.H.c.X.A ",
"H ! [ z.P.T.W.}.-X@.h o g :.2.2.y.:.n h - ; @.aXiX8X X[.I.d.o.L ",
"S ! ..5.5.,.B B v B M >.3.7.8.8.8.8.3.2.<.N >.N 1.1.5.5.1.c.] F ",
"J P ..v   o ;                 o o o # o X X X X o o   o g c.[ P ",
"A P ..z z     ; . q ; : . o o ; q   : u ; : w : # : >   f k.O.D ",
"C P ] z B   q q y q y y o ; q ; w   > s w $ k : > w + % g m.i.! ",
"V F &.z . , : o %     o .     o X   ; .   X             g B.i.! ",
"9 A Y g       : % u x ; k w x o q   k k # k : w %       g m.i.! ",
"8 H Y f       o : q : : y , q # ,   k # < : : > #       f m.p._ ",
"8 J T g o o o o o o o o o o = o o o o o o o o = o o o o l m.j._ ",
"i J T @.#.R $.#.#.> < M f l c >.N c M c c f g =.=.*.;.;.-.m.j.( ",
"6 a R o.N.S.I.}.w.M v 2.< l < h h h M n < c <.eX9XqX<X^.U.M.%.( ",
"w a R $.&.N.J.Q.N 8.#.w.z g j j n h 2.c r.+X@.t.e.`.:X!.U.m.%.Y ",
"6 a I R X.x.N.J.3.@.*X3X+X0.B M N 4.r.eXpXuX(.0.).<X:XE.Z.z.&.L ",
"& i a I T X.c.b.9.N.I.].}.4XyXwXwXuXuXuX0XqX+X`._.'.'.U.M.l. .L ",
"* w t a J _ ] p.v.d.g.P.Y.&X-X}.*X1X5X5X>X X^.:X^.!.E.A.z.l./ H ",
"* & 6 t J L / ) ] ' a.s.d.J.I.I.I.Q.].[.W.!.!.~.E.U.A.Z.l.../ H ",
"# * 6 i 9 J J P D W W Q a.a.d.d.b.C.G.P.G.G.A.Z.Z.z.z.l.../ H G ",
"O % * 4 6 8 9 9 C Z Z F D E ~ ~ ] [ i.j.l.O.l.l.%... . .{ H p e ",
". O O $ & 4 4 5 3 0 0 0 C C Z Z Z L U / Y P L L L H H H p e 5 4 ",
"  . X O + + + @ @ @ * 2 2 3 3 3 5 0 9 r e e e e e e 5 5 4 4 : $ ",
"        . . . . O . O O + + + + @ @ @ & $ 1 @ $ $ # $ + # O O X "
};
